<svg width="120" height="14" viewBox="0 0 120 14" fill="none" xmlns="http://www.w3.org/2000/svg">
<path d="M6.98719 4.68L6.89119 4.84L1.91519 6.728V6.84L6.90719 8.664L6.60319 9.848L6.41119 9.992L0.411188 7.704V5.976L0.555188 5.784L6.52319 3.464L6.98719 4.68ZM13.3787 0.568C14.4987 0.568 15.5067 0.776 16.4027 1.192L15.9387 3.144L15.7307 3.176C15.208 2.87733 14.7387 2.664 14.3227 2.536C13.9174 2.39733 13.48 2.328 13.0107 2.328C12.0614 2.328 11.368 2.61067 10.9307 3.176C10.4934 3.74133 10.2747 4.66933 10.2747 5.96C10.2747 6.81333 10.3654 7.49067 10.5467 7.992C10.7387 8.49333 11.032 8.86133 11.4267 9.096C11.8214 9.32 12.344 9.432 12.9947 9.432C13.2187 9.432 13.4267 9.416 13.6187 9.384C13.8214 9.352 14.0667 9.29333 14.3547 9.208L14.3867 8.328L14.3547 6.696L16.3547 6.552L16.3067 7.992L16.3547 10.504C15.0747 10.9307 13.896 11.144 12.8187 11.144C11.2187 11.144 10.0134 10.7067 9.20269 9.832C8.40269 8.95733 8.00269 7.704 8.00269 6.072C8.00269 4.29067 8.46669 2.93067 9.39469 1.992C10.3334 1.04267 11.6614 0.568 13.3787 0.568ZM26.9572 7.736L27.0212 11H24.8612L24.9572 7.928L24.9412 6.728L22.6212 6.712L20.5252 6.744L20.5092 7.736L20.5892 11H18.4292L18.5412 7.928L18.4292 0.695999H20.6212L20.5572 4.952L22.7652 4.984L24.9252 4.952L24.8612 0.695999H27.0692L26.9572 7.736ZM35.1174 12.568L35.0054 13.768H27.6774L27.5334 13.608L27.6454 12.424H34.9894L35.1174 12.568ZM42.6108 9.208L42.7388 9.384L42.5948 11H36.1308L36.2428 7.928L36.1308 0.695999H42.6588L42.7868 0.872L42.6268 2.488L40.1628 2.408L38.3068 2.424L38.2588 4.904L40.0348 4.936L41.7148 4.888L41.8428 5.048L41.6988 6.664L39.8748 6.616L38.2268 6.632L38.2108 7.736L38.2588 9.288L40.0668 9.304L42.6108 9.208ZM49.3914 5.608L52.7194 11H50.1114L49.6314 9.976L47.9194 7.304L46.0634 10.088L45.5994 11H43.3594L46.6554 5.912L43.3914 0.695999H45.9994L46.4794 1.736L48.0954 4.248L49.7754 1.656L50.2074 0.695999H52.5114L49.3914 5.608ZM58.1922 0.679999C59.2695 0.679999 60.0962 0.951999 60.6722 1.496C61.2589 2.04 61.5522 2.81867 61.5522 3.832C61.5522 4.61067 61.3815 5.29333 61.0402 5.88C60.6989 6.456 60.2082 6.904 59.5682 7.224C58.9389 7.544 58.1975 7.704 57.3442 7.704H56.3202V7.736L56.4162 11H54.2402L54.3522 7.928L54.2402 0.695999L58.1922 0.679999ZM57.8242 6.12C58.8055 5.84267 59.2962 5.144 59.2962 4.024C59.2962 3.448 59.1469 3.02133 58.8482 2.744C58.5602 2.456 58.1122 2.30133 57.5042 2.28L56.4162 2.344L56.3522 6.056L57.8242 6.12ZM68.7319 9.384L68.5879 11H63.0199L63.1319 7.928L63.0199 0.695999H65.2279L65.0999 7.736L65.1479 9.208H68.6039L68.7319 9.384ZM73.5858 0.551999C75.0365 0.551999 76.1511 0.994666 76.9298 1.88C77.7191 2.75467 78.1138 4.00267 78.1138 5.624C78.1138 7.39467 77.6871 8.76 76.8338 9.72C75.9805 10.68 74.7751 11.16 73.2178 11.16C71.7778 11.16 70.6631 10.712 69.8738 9.816C69.0951 8.90933 68.7058 7.62933 68.7058 5.976C68.7058 4.23733 69.1271 2.89867 69.9698 1.96C70.8231 1.02133 72.0285 0.551999 73.5858 0.551999ZM73.3938 2.296C72.5405 2.296 71.9218 2.56267 71.5378 3.096C71.1538 3.62933 70.9618 4.49867 70.9618 5.704C70.9618 7.08 71.1485 8.06133 71.5218 8.648C71.9058 9.23467 72.5351 9.528 73.4098 9.528C74.2631 9.528 74.8818 9.26133 75.2658 8.728C75.6498 8.184 75.8418 7.29867 75.8418 6.072C75.8418 4.71733 75.6498 3.752 75.2658 3.176C74.8925 2.58933 74.2685 2.296 73.3938 2.296ZM85.1169 6.904C85.9489 8.22667 86.7756 9.42133 87.5969 10.488L87.5649 10.728C86.8716 10.9733 86.1623 11.1173 85.4369 11.16L85.2129 10.984C84.4449 9.66133 83.8209 8.50933 83.3409 7.528H81.7889V7.736L81.8849 11H79.7089L79.8209 7.928L79.7089 0.695999L83.6609 0.679999C84.7383 0.679999 85.5703 0.946666 86.1569 1.48C86.7436 2.00267 87.0369 2.75467 87.0369 3.736C87.0369 4.39733 86.8663 5.00533 86.5249 5.56C86.1943 6.104 85.7249 6.552 85.1169 6.904ZM81.8209 5.848L83.4049 5.912C84.3116 5.60267 84.7649 4.94667 84.7649 3.944C84.7649 3.4 84.6156 2.99467 84.3169 2.728C84.0289 2.45067 83.5809 2.30133 82.9729 2.28L81.8849 2.344L81.8209 5.848ZM95.6264 9.208L95.7544 9.384L95.6104 11H89.1464L89.2584 7.928L89.1464 0.695999H95.6744L95.8024 0.872L95.6424 2.488L93.1784 2.408L91.3224 2.424L91.2744 4.904L93.0504 4.936L94.7304 4.888L94.8584 5.048L94.7144 6.664L92.8904 6.616L91.2424 6.632L91.2264 7.736L91.2744 9.288L93.0824 9.304L95.6264 9.208ZM102.695 6.904C103.527 8.22667 104.354 9.42133 105.175 10.488L105.143 10.728C104.45 10.9733 103.74 11.1173 103.015 11.16L102.791 10.984C102.023 9.66133 101.399 8.50933 100.919 7.528H99.3671V7.736L99.4631 11H97.2871L97.3991 7.928L97.2871 0.695999L101.239 0.679999C102.316 0.679999 103.148 0.946666 103.735 1.48C104.322 2.00267 104.615 2.75467 104.615 3.736C104.615 4.39733 104.444 5.00533 104.103 5.56C103.772 6.104 103.303 6.552 102.695 6.904ZM99.3991 5.848L100.983 5.912C101.89 5.60267 102.343 4.94667 102.343 3.944C102.343 3.4 102.194 2.99467 101.895 2.728C101.607 2.45067 101.159 2.30133 100.551 2.28L99.4631 2.344L99.3991 5.848ZM112.794 0.311999L109.482 12.84H108.01L107.882 12.664L111.178 0.12H112.618L112.794 0.311999ZM119.437 5.784L119.581 5.976V7.704L113.581 9.992L113.389 9.848L113.085 8.664L118.077 6.84V6.728L113.101 4.84L113.005 4.68L113.469 3.464L119.437 5.784Z" fill="#333"/>
</svg>
